PathFileType	4	(X/Y/Z)	./resultDataOpenSim/trcMotMarkerGrf/sub09/qtm-12-05.trc
DataRate	CameraRate	NumFrames	NumMarkers	Units	OrigDataRate	OrigDataStartFrame	OrigNumFrames
250.000000	250.000000	14	24	m	250.000000	119	473
Frame#	Time	L.Toe.Tip			R.Toe.Tip			L.Ankle.Lat			R.Ankle.Lat			L.Ankle.Med			R.Ankle.Med			L.Heel			R.Heel			L.Knee.Lat			R.Knee.Lat			L.Knee.Med			R.Knee.Med			L.Thigh.Upper			R.Thigh.Upper			L.ASIS			R.ASIS			V.Sacral			L.Acromium			R.Acromium			C7			L.Elbow			R.Elbow			L.Wrist.Lat			R.Wrist.Lat
		X1	Y1	Z1	X2	Y2	Z2	X3	Y3	Z3	X4	Y4	Z4	X5	Y5	Z5	X6	Y6	Z6	X7	Y7	Z7	X8	Y8	Z8	X9	Y9	Z9	X10	Y10	Z10	X11	Y11	Z11	X12	Y12	Z12	X13	Y13	Z13	X14	Y14	Z14	X15	Y15	Z15	X16	Y16	Z16	X17	Y17	Z17	X18	Y18	Z18	X19	Y19	Z19	X20	Y20	Z20	X21	Y21	Z21	X22	Y22	Z22	X23	Y23	Z23	X24	Y24	Z24

119	0.472	-0.18584661	0.086718075	-0.063435299	-0.61661481	0.038416283	0.037996959	-0.33759117	0.093401906	-0.10149682	-0.76424033	0.057783567	0.064578279	-0.31769899	0.11733701	-0.0069053483	-0.74964239	0.094507922	-0.026648843	-0.39702503	0.043502695	-0.050373527	-0.83117682	0.037377589	0.012483742	-0.36843282	0.5124011	-0.14309059	-0.63733159	0.50007998	0.13701838	-0.36711263	0.50934271	-0.015954462	-0.64797731	0.48968656	0.0041563488	-0.55089337	0.89269295	-0.18102983	-0.59149846	0.90021701	0.19100583	-0.48292005	0.97836602	-0.11518438	-0.48205693	0.98056947	0.12486086	-0.64714813	1.0353196	-0.0011988532	-0.48703768	1.4277334	-0.17329405	-0.4986699	1.4454744	0.15587271	-0.55923817	1.4873749	-0.0079952734	-0.65246259	1.1005653	-0.21693107	-0.61071339	1.094837	0.26267349	-0.56712615	0.85753773	-0.27010834	-0.39228479	0.92000204	0.24047632
120	0.476	-0.16676105	0.089776745	-0.06185213	-0.61657438	0.03843904	0.038103784	-0.31876988	0.09278113	-0.10084561	-0.76418506	0.058134899	0.064555679	-0.29957012	0.11763273	-0.0061815161	-0.74930781	0.094662564	-0.026841964	-0.37682434	0.041582201	-0.049674988	-0.83112692	0.037719527	0.012148419	-0.36210989	0.51075419	-0.14297054	-0.63462399	0.49948948	0.13698862	-0.36067058	0.50763474	-0.015645364	-0.64543238	0.48923685	0.00423322	-0.54461595	0.89105264	-0.18106536	-0.58576411	0.89917748	0.19102337	-0.47650328	0.97683308	-0.11514401	-0.47566395	0.97922768	0.1249178	-0.64216566	1.0351065	-0.001828585	-0.48102811	1.4264971	-0.17334529	-0.49262322	1.444087	0.15587305	-0.55321489	1.4859706	-0.007967653	-0.64685558	1.0996814	-0.21716826	-0.60395708	1.0931964	0.2629998	-0.56255196	0.85652187	-0.27105922	-0.38444222	0.91967215	0.24031742
121	0.48	-0.14804264	0.093018999	-0.060383497	-0.61654035	0.038484714	0.038220381	-0.30019035	0.092454879	-0.10028255	-0.7640757	0.058583856	0.064486631	-0.28174633	0.11815218	-0.0055366861	-0.74896731	0.094834599	-0.027000268	-0.35694203	0.040015712	-0.049176571	-0.8310639	0.038083667	0.011821533	-0.35570148	0.50886697	-0.14262407	-0.63167685	0.49873872	0.13682491	-0.35433803	0.5057809	-0.015354633	-0.64277066	0.48876859	0.0043103004	-0.5383294	0.88932191	-0.18111795	-0.58001488	0.89807649	0.19103194	-0.47007434	0.97524849	-0.11508913	-0.46929287	0.97781832	0.12496211	-0.63737085	1.0349554	-0.0027675526	-0.47501129	1.4251926	-0.17340189	-0.48657118	1.4426244	0.15587362	-0.54720823	1.4845033	-0.007903433	-0.6412606	1.0987325	-0.21761485	-0.59719875	1.0914804	0.26330474	-0.55794122	0.85543307	-0.27201228	-0.37662823	0.91924995	0.24016564
122	0.484	-0.12972955	0.096447976	-0.059013173	-0.61651934	0.038491411	0.038305719	-0.28185572	0.092434036	-0.09978753	-0.76408308	0.059133632	0.064272221	-0.26428351	0.11882293	-0.0049905305	-0.74860688	0.095026434	-0.027137581	-0.33740385	0.038767241	-0.048871007	-0.83098686	0.038467242	0.011484032	-0.34918945	0.50677681	-0.14206742	-0.62854905	0.49771094	0.13639244	-0.34802148	0.5038373	-0.015033012	-0.63993117	0.48828155	0.0044082365	-0.53202922	0.88750689	-0.18116968	-0.57424995	0.89692064	0.19103697	-0.46363946	0.97361948	-0.11502505	-0.46295857	0.97634551	0.12500151	-0.6323834	1.034368	-0.002972873	-0.46900787	1.42383	-0.17347704	-0.48051281	1.4410898	0.15587779	-0.54117022	1.4829806	-0.0078595493	-0.63565268	1.097707	-0.21817717	-0.59043518	1.0896911	0.26358732	-0.5532797	0.8542667	-0.27297065	-0.36886441	0.91874496	0.24002984
123	0.488	-0.11187038	0.10006262	-0.057728108	-0.61650358	0.038405825	0.038335202	-0.26380642	0.092711698	-0.099350091	-0.76428709	0.059783963	0.063877956	-0.24722035	0.11960171	-0.0045318022	-0.74820944	0.095243651	-0.027274376	-0.31823855	0.037795017	-0.048729357	-0.830892	0.03887608	0.011110741	-0.34257318	0.50457775	-0.14136969	-0.62549786	0.49652073	0.13578881	-0.34167212	0.50184207	-0.014638695	-0.63678876	0.48779728	0.004586047	-0.5257226	0.88562243	-0.1811986	-0.56845536	0.89570815	0.19103708	-0.45720141	0.97194798	-0.11495504	-0.4566681	0.97481897	0.12504385	-0.62668406	1.0330854	-0.002684344	-0.46303059	1.422416	-0.17358189	-0.47445243	1.4394856	0.15588617	-0.53509115	1.4814071	-0.0078576487	-0.6300026	1.096591	-0.21873697	-0.58366005	1.0878259	0.26384028	-0.54855062	0.85302732	-0.2739302	-0.36118138	0.91817308	0.2399337
124	0.492	-0.094516601	0.10385675	-0.056519826	-0.61646728	0.038235683	0.038320071	-0.24613761	0.093251866	-0.098981937	-0.76455021	0.060419138	0.063399583	-0.23057844	0.12047862	-0.0041202132	-0.74776207	0.095496537	-0.027427479	-0.29948382	0.037063148	-0.048724789	-0.83077359	0.039329675	0.010678814	-0.33584263	0.50233617	-0.14058246	-0.62262961	0.49555484	0.13545622	-0.33528623	0.49980835	-0.014149403	-0.63322033	0.48735416	0.0049010282	-0.51940483	0.88368323	-0.18119946	-0.56262004	0.89443606	0.19102639	-0.45075745	0.97023389	-0.1148806	-0.45041942	0.97324846	0.1250892	-0.61998105	1.0311448	-0.0030020116	-0.45705845	1.4209418	-0.17370611	-0.46839429	1.4378154	0.15589607	-0.52898348	1.4797705	-0.0078933316	-0.62430215	1.0953818	-0.21924541	-0.57687543	1.0858867	0.26406066	-0.54374057	0.85173099	-0.27488948	-0.35359313	0.91754332	0.23989463
125	0.496	-0.077710648	0.1078183	-0.055392131	-0.61639966	0.038048875	0.038300041	-0.22894204	0.094004902	-0.098699226	-0.76463241	0.060829991	0.063018442	-0.21437478	0.12144669	-0.0037241102	-0.7472666	0.095794434	-0.027603963	-0.28117104	0.036533096	-0.048847874	-0.8306306	0.039840918	0.010174994	-0.32903831	0.50014584	-0.1398046	-0.61951802	0.49495314	0.13561083	-0.3288689	0.49773445	-0.013556338	-0.6293049	0.4869357	0.0053074696	-0.51304094	0.88169577	-0.18117736	-0.55675256	0.89310696	0.19100733	-0.44429745	0.96847905	-0.11480828	-0.44420622	0.97164414	0.12513386	-0.61281821	1.0288135	-0.0038233378	-0.45105172	1.4193946	-0.17382225	-0.46232415	1.4360853	0.15590492	-0.52285821	1.4780612	-0.0079523382	-0.61855775	1.094087	-0.2197199	-0.57009298	1.0838839	0.26425415	-0.53883759	0.85038914	-0.27584587	-0.34607047	0.916846	0.23989485
126	0.5	-0.061480601	0.11191303	-0.054355499	-0.61631832	0.03790677	0.038306904	-0.21224996	0.094930388	-0.098497409	-0.7644314	0.060939331	0.062845757	-0.19863894	0.12248833	-0.0033417406	-0.74674158	0.0961321	-0.027801022	-0.26331245	0.036152333	-0.049109096	-0.83047006	0.040400722	0.0096071211	-0.32224781	0.49819958	-0.13922126	-0.61571856	0.49426111	0.13575149	-0.32241463	0.49561592	-0.012861986	-0.62535996	0.48645108	0.0056577767	-0.50658433	0.87966151	-0.18112544	-0.55086996	0.89172261	0.19099062	-0.43780979	0.96668351	-0.11474654	-0.43801555	0.97001832	0.12517909	-0.60607849	1.0264039	-0.0040318473	-0.44498912	1.4177753	-0.17391254	-0.45621505	1.4343046	0.1559147	-0.51671544	1.4762921	-0.0080195497	-0.61277463	1.0927156	-0.22019335	-0.5633185	1.0818268	0.26442274	-0.53383309	0.8489861	-0.27678891	-0.33856335	0.9160625	0.23989583
127	0.504	-0.045838481	0.11606573	-0.053402845	-0.61624566	0.037821939	0.038344967	-0.1960598	0.09598911	-0.09835255	-0.76407902	0.060918917	0.06282623	-0.18340929	0.12357788	-0.0029993431	-0.74620581	0.096487338	-0.028010345	-0.24591076	0.035862706	-0.049529001	-0.83030115	0.040997958	0.0090134326	-0.31548003	0.49661339	-0.13891293	-0.61150163	0.49306777	0.13534986	-0.31593164	0.49345429	-0.01209183	-0.62161953	0.48583301	0.0058533571	-0.50000168	0.87757918	-0.18102568	-0.54497826	0.89028302	0.19098102	-0.43129487	0.96484317	-0.11469469	-0.43183761	0.96837952	0.12523059	-0.59986854	1.0240542	-0.0034278956	-0.4388816	1.4160928	-0.17397966	-0.450064	1.4324844	0.15593479	-0.51055106	1.47449	-0.0080833093	-0.60695258	1.0912714	-0.22068319	-0.55654531	1.079717	0.26455734	-0.52873487	0.8474937	-0.27771155	-0.33105389	0.91518238	0.23987915
128	0.508	-0.030779563	0.12016821	-0.052500823	-0.61619674	0.037783376	0.038406523	-0.18039107	0.097129911	-0.098234121	-0.76378352	0.061016735	0.062819526	-0.16872387	0.12467933	-0.0027301037	-0.7456629	0.096839495	-0.028221992	-0.22900538	0.03563538	-0.050119429	-0.83012964	0.04164237	0.0084489815	-0.30861736	0.49527533	-0.13873129	-0.60736236	0.49161019	0.13464242	-0.30944754	0.49126127	-0.011291374	-0.61803323	0.48510136	0.0059208677	-0.49329404	0.87543893	-0.18086498	-0.53907536	0.88879086	0.19098057	-0.42476896	0.96295533	-0.11464406	-0.42567649	0.96672854	0.12529482	-0.5936567	1.0217544	-0.0028399441	-0.4327575	1.4143491	-0.17404045	-0.44390275	1.4306329	0.15597038	-0.50436357	1.4726747	-0.0081436782	-0.60108922	1.0897532	-0.22119224	-0.54976669	1.0775543	0.26464854	-0.5235695	0.8459093	-0.27862277	-0.32356322	0.9142064	0.23985047
129	0.512	-0.01629302	0.12410555	-0.051616411	-0.61618025	0.037782124	0.038482971	-0.16527392	0.098299499	-0.098105128	-0.76362417	0.061327387	0.062750061	-0.15461341	0.1257491	-0.0025278003	-0.74510599	0.097186915	-0.028424359	-0.21271553	0.035498632	-0.050860125	-0.82996022	0.042353485	0.0079530413	-0.3015287	0.49401136	-0.13848685	-0.60324004	0.49034582	0.13422945	-0.30297221	0.48905729	-0.01050556	-0.61441102	0.4843023	0.0059218237	-0.48650949	0.87322226	-0.18064993	-0.53315778	0.88724794	0.19099387	-0.41825289	0.96102124	-0.11459075	-0.41953942	0.96506597	0.12537968	-0.58718013	1.0194886	-0.0027554719	-0.42662996	1.4125447	-0.17411991	-0.43774712	1.4287463	0.15600975	-0.49815381	1.4708483	-0.0082144054	-0.59518272	1.0881618	-0.22171977	-0.54299189	1.0753466	0.2646997	-0.51835866	0.8442558	-0.27953801	-0.31611494	0.91314177	0.23981673
130	0.516	-0.0023822343	0.12777374	-0.050753942	-0.61618729	0.037800305	0.038557389	-0.15073279	0.099446513	-0.097923157	-0.76354113	0.061789614	0.062635783	-0.14107568	0.12675879	-0.0023346973	-0.74453136	0.097545463	-0.028604388	-0.19718203	0.03549342	-0.051659379	-0.82979794	0.04314094	0.0075376838	-0.2941837	0.4927421	-0.13811851	-0.5988433	0.48937831	0.13433978	-0.29649051	0.48686564	-0.0097812796	-0.61054993	0.48344541	0.0058579036	-0.47970617	0.87091483	-0.18040755	-0.52722115	0.88565514	0.1910214	-0.41175531	0.95904316	-0.11453634	-0.41341963	0.96339819	0.12549368	-0.5805604	1.0172547	-0.0029849828	-0.42047015	1.410688	-0.17424211	-0.4315635	1.4268127	0.15603278	-0.49192298	1.4690026	-0.0083094755	-0.58923328	1.0865039	-0.2222649	-0.53624865	1.0731087	0.26472671	-0.51310035	0.84255365	-0.28046335	-0.30871574	0.91199669	0.23977905
131	0.52	0.010931992	0.1310882	-0.049958063	-0.61619154	0.03780952	0.038607333	-0.13680545	0.10050868	-0.097659502	-0.76344868	0.062322364	0.062513849	-0.12807434	0.12770694	-0.0021012513	-0.74395058	0.097936976	-0.028756437	-0.18244529	0.035587652	-0.052296151	-0.82964407	0.044007192	0.0072037864	-0.28663543	0.49145029	-0.1376548	-0.59411349	0.4885194	0.13472023	-0.28997753	0.48470915	-0.0091736287	-0.6063081	0.48252082	0.0057053295	-0.47289107	0.86852124	-0.18016684	-0.52126285	0.88401953	0.19105901	-0.40526801	0.95702427	-0.11447894	-0.4072914	0.96173199	0.12563853	-0.57394247	1.015038	-0.0032594169	-0.41423462	1.4087857	-0.17441519	-0.42531308	1.4248296	0.15602713	-0.48567162	1.4671315	-0.0084312335	-0.58324356	1.084789	-0.22282436	-0.52957491	1.0708512	0.2647505	-0.50777785	0.84081187	-0.28139536	-0.30136229	0.91077701	0.23973783
132	0.524	0.023627491	0.13398521	-0.049285039	-0.61617211	0.037794928	0.038622294	-0.12355456	0.10140821	-0.097313028	-0.76329818	0.062888566	0.062393505	-0.11558692	0.12859311	-0.0018239003	-0.74339608	0.098378363	-0.028894645	-0.16844856	0.035675352	-0.052474213	-0.82949498	0.0449565	0.0069494451	-0.27892291	0.49015141	-0.13714939	-0.589139	0.4875894	0.13496196	-0.28338829	0.48261563	-0.0087202324	-0.60169089	0.48154903	0.0055225251	-0.46602199	0.86606492	-0.1799395	-0.51527822	0.88235398	0.19109739	-0.39877752	0.95497012	-0.11441306	-0.40112418	0.96006845	0.12580384	-0.56744204	1.0128127	-0.0035830195	-0.40793273	1.4068406	-0.17462176	-0.41899602	1.4228055	0.15599252	-0.47940064	1.4652345	-0.0085737084	-0.57721714	1.0830261	-0.22339252	-0.52298407	1.0685764	0.26477692	-0.50237347	0.83903322	-0.28233019	-0.29405014	0.90948799	0.23969505
